<?xml version="1.0" encoding="UTF-8"?>
<!--Generator: Apple Native CoreSVG 149-->
<!DOCTYPE svg
PUBLIC "-//W3C//DTD SVG 1.1//EN"
       "http://www.w3.org/Graphics/SVG/1.1/DTD/svg11.dtd">
<svg version="1.1" xmlns="http://www.w3.org/2000/svg" xmlns:xlink="http://www.w3.org/1999/xlink" width="3300" height="2200">
 <!--glyph: "uni1009FB.medium", point size: 100.0, font version: "17.0d8e1", template writer version: "58"-->
 <style>.hierarchical-0:tertiary {fill:#8E8E8E}
.hierarchical-1:primary {fill:#212121}

.SFSymbolsPreview212121 {fill:#212121;opacity:1.0}
.SFSymbolsPreview8E8E8E {fill:#8E8E8E;opacity:1.0}
</style>
 <g id="Notes">
  <rect height="2200" id="artboard" style="fill:white;opacity:1" width="3300" x="0" y="0"/>
  <line style="fill:none;stroke:black;opacity:1;stroke-width:0.5;" x1="263" x2="3036" y1="292" y2="292"/>
  <text style="stroke:none;fill:black;font-family:SF Pro,SF Pro Display,SF Pro Text,sans-serif;font-size:13;font-weight:bold;" transform="matrix(1 0 0 1 263 322)">Weight/Scale Variations</text>
  <text style="stroke:none;fill:black;font-family:SF Pro,SF Pro Display,SF Pro Text,sans-serif;font-size:13;text-anchor:middle;" transform="matrix(1 0 0 1 559.711 322)">Ultralight</text>
  <text style="stroke:none;fill:black;font-family:SF Pro,SF Pro Display,SF Pro Text,sans-serif;font-size:13;text-anchor:middle;" transform="matrix(1 0 0 1 856.422 322)">Thin</text>
  <text style="stroke:none;fill:black;font-family:SF Pro,SF Pro Display,SF Pro Text,sans-serif;font-size:13;text-anchor:middle;" transform="matrix(1 0 0 1 1153.13 322)">Light</text>
  <text style="stroke:none;fill:black;font-family:SF Pro,SF Pro Display,SF Pro Text,sans-serif;font-size:13;text-anchor:middle;" transform="matrix(1 0 0 1 1449.84 322)">Regular</text>
  <text style="stroke:none;fill:black;font-family:SF Pro,SF Pro Display,SF Pro Text,sans-serif;font-size:13;text-anchor:middle;" transform="matrix(1 0 0 1 1746.56 322)">Medium</text>
  <text style="stroke:none;fill:black;font-family:SF Pro,SF Pro Display,SF Pro Text,sans-serif;font-size:13;text-anchor:middle;" transform="matrix(1 0 0 1 2043.27 322)">Semibold</text>
  <text style="stroke:none;fill:black;font-family:SF Pro,SF Pro Display,SF Pro Text,sans-serif;font-size:13;text-anchor:middle;" transform="matrix(1 0 0 1 2339.98 322)">Bold</text>
  <text style="stroke:none;fill:black;font-family:SF Pro,SF Pro Display,SF Pro Text,sans-serif;font-size:13;text-anchor:middle;" transform="matrix(1 0 0 1 2636.69 322)">Heavy</text>
  <text style="stroke:none;fill:black;font-family:SF Pro,SF Pro Display,SF Pro Text,sans-serif;font-size:13;text-anchor:middle;" transform="matrix(1 0 0 1 2933.4 322)">Black</text>
  <line style="fill:none;stroke:black;opacity:1;stroke-width:0.5;" x1="263" x2="3036" y1="1903" y2="1903"/>
  <g transform="matrix(1 0 0 1 263 1933)">
   <path d="M9.24805 0.830078Q10.8691 0.830078 12.2949 0.214844Q13.7207-0.400391 14.8096-1.49414Q15.8984-2.58789 16.5186-4.01367Q17.1387-5.43945 17.1387-7.05078Q17.1387-8.66211 16.5186-10.0879Q15.8984-11.5137 14.8047-12.6074Q13.7109-13.7012 12.2852-14.3164Q10.8594-14.9316 9.23828-14.9316Q7.62695-14.9316 6.20117-14.3164Q4.77539-13.7012 3.69141-12.6074Q2.60742-11.5137 1.9873-10.0879Q1.36719-8.66211 1.36719-7.05078Q1.36719-5.43945 1.9873-4.01367Q2.60742-2.58789 3.69629-1.49414Q4.78516-0.400391 6.21094 0.214844Q7.63672 0.830078 9.24805 0.830078ZM9.24805-0.654297Q7.91992-0.654297 6.7627-1.14746Q5.60547-1.64062 4.73145-2.51953Q3.85742-3.39844 3.36426-4.56055Q2.87109-5.72266 2.87109-7.05078Q2.87109-8.37891 3.35938-9.54102Q3.84766-10.7031 4.72168-11.582Q5.5957-12.4609 6.75293-12.9541Q7.91016-13.4473 9.23828-13.4473Q10.5762-13.4473 11.7334-12.9541Q12.8906-12.4609 13.7695-11.582Q14.6484-10.7031 15.1465-9.54102Q15.6445-8.37891 15.6445-7.05078Q15.6445-5.72266 15.1514-4.56055Q14.6582-3.39844 13.7842-2.51953Q12.9102-1.64062 11.748-1.14746Q10.5859-0.654297 9.24805-0.654297ZM5.83984-7.04102Q5.83984-6.71875 6.04492-6.51855Q6.25-6.31836 6.5918-6.31836L8.50586-6.31836L8.50586-4.39453Q8.50586-4.0625 8.70605-3.85742Q8.90625-3.65234 9.22852-3.65234Q9.56055-3.65234 9.76562-3.85742Q9.9707-4.0625 9.9707-4.39453L9.9707-6.31836L11.8945-6.31836Q12.2266-6.31836 12.4316-6.51855Q12.6367-6.71875 12.6367-7.04102Q12.6367-7.37305 12.4316-7.57812Q12.2266-7.7832 11.8945-7.7832L9.9707-7.7832L9.9707-9.69727Q9.9707-10.0391 9.76562-10.2441Q9.56055-10.4492 9.22852-10.4492Q8.90625-10.4492 8.70605-10.2441Q8.50586-10.0391 8.50586-9.69727L8.50586-7.7832L6.5918-7.7832Q6.25-7.7832 6.04492-7.57812Q5.83984-7.37305 5.83984-7.04102Z"/>
  </g>
  <g transform="matrix(1 0 0 1 281.867 1933)">
   <path d="M11.709 2.91016Q13.75 2.91016 15.5518 2.12891Q17.3535 1.34766 18.7305-0.0292969Q20.1074-1.40625 20.8887-3.20801Q21.6699-5.00977 21.6699-7.05078Q21.6699-9.0918 20.8887-10.8936Q20.1074-12.6953 18.7305-14.0723Q17.3535-15.4492 15.5469-16.2305Q13.7402-17.0117 11.6992-17.0117Q9.6582-17.0117 7.85645-16.2305Q6.05469-15.4492 4.68262-14.0723Q3.31055-12.6953 2.5293-10.8936Q1.74805-9.0918 1.74805-7.05078Q1.74805-5.00977 2.5293-3.20801Q3.31055-1.40625 4.6875-0.0292969Q6.06445 1.34766 7.86621 2.12891Q9.66797 2.91016 11.709 2.91016ZM11.709 1.25Q9.98047 1.25 8.47656 0.605469Q6.97266-0.0390625 5.83496-1.17676Q4.69727-2.31445 4.05762-3.81836Q3.41797-5.32227 3.41797-7.05078Q3.41797-8.7793 4.05762-10.2832Q4.69727-11.7871 5.83008-12.9297Q6.96289-14.0723 8.4668-14.7119Q9.9707-15.3516 11.6992-15.3516Q13.4277-15.3516 14.9316-14.7119Q16.4355-14.0723 17.5781-12.9297Q18.7207-11.7871 19.3652-10.2832Q20.0098-8.7793 20.0098-7.05078Q20.0098-5.32227 19.3701-3.81836Q18.7305-2.31445 17.5928-1.17676Q16.4551-0.0390625 14.9463 0.605469Q13.4375 1.25 11.709 1.25ZM7.39258-7.04102Q7.39258-6.68945 7.62695-6.46484Q7.86133-6.24023 8.23242-6.24023L10.8789-6.24023L10.8789-3.57422Q10.8789-3.21289 11.1035-2.9834Q11.3281-2.75391 11.6797-2.75391Q12.0508-2.75391 12.2852-2.9834Q12.5195-3.21289 12.5195-3.57422L12.5195-6.24023L15.1758-6.24023Q15.5371-6.24023 15.7715-6.46484Q16.0059-6.68945 16.0059-7.04102Q16.0059-7.41211 15.7715-7.6416Q15.5371-7.87109 15.1758-7.87109L12.5195-7.87109L12.5195-10.5176Q12.5195-10.8984 12.2852-11.1279Q12.0508-11.3574 11.6797-11.3574Q11.3281-11.3574 11.1035-11.1279Q10.8789-10.8984 10.8789-10.5176L10.8789-7.87109L8.23242-7.87109Q7.85156-7.87109 7.62207-7.6416Q7.39258-7.41211 7.39258-7.04102Z"/>
  </g>
  <g transform="matrix(1 0 0 1 305.646 1933)">
   <path d="M14.9707 5.66406Q17.0605 5.66406 18.96 5.01465Q20.8594 4.36523 22.4512 3.19336Q24.043 2.02148 25.2197 0.429688Q26.3965-1.16211 27.0459-3.06641Q27.6953-4.9707 27.6953-7.05078Q27.6953-9.14062 27.0459-11.04Q26.3965-12.9395 25.2197-14.5312Q24.043-16.123 22.4512-17.2998Q20.8594-18.4766 18.9551-19.126Q17.0508-19.7754 14.9609-19.7754Q12.8711-19.7754 10.9717-19.126Q9.07227-18.4766 7.48535-17.2998Q5.89844-16.123 4.72168-14.5312Q3.54492-12.9395 2.90039-11.04Q2.25586-9.14062 2.25586-7.05078Q2.25586-4.9707 2.90527-3.06641Q3.55469-1.16211 4.72656 0.429688Q5.89844 2.02148 7.49023 3.19336Q9.08203 4.36523 10.9814 5.01465Q12.8809 5.66406 14.9707 5.66406ZM14.9707 3.84766Q13.1641 3.84766 11.5283 3.2959Q9.89258 2.74414 8.53516 1.74805Q7.17773 0.751953 6.17676-0.610352Q5.17578-1.97266 4.62891-3.6084Q4.08203-5.24414 4.08203-7.05078Q4.08203-8.86719 4.62891-10.5029Q5.17578-12.1387 6.17188-13.501Q7.16797-14.8633 8.52539-15.8594Q9.88281-16.8555 11.5186-17.4023Q13.1543-17.9492 14.9609-17.9492Q16.7773-17.9492 18.4131-17.4023Q20.0488-16.8555 21.4111-15.8594Q22.7734-14.8633 23.7695-13.501Q24.7656-12.1387 25.3174-10.5029Q25.8691-8.86719 25.8691-7.05078Q25.8789-5.24414 25.332-3.6084Q24.7852-1.97266 23.7842-0.610352Q22.7832 0.751953 21.4209 1.74805Q20.0586 2.74414 18.4229 3.2959Q16.7871 3.84766 14.9707 3.84766ZM9.45312-7.04102Q9.45312-6.66016 9.71191-6.41113Q9.9707-6.16211 10.3711-6.16211L14.0625-6.16211L14.0625-2.46094Q14.0625-2.06055 14.3115-1.80664Q14.5605-1.55273 14.9414-1.55273Q15.3516-1.55273 15.6055-1.80664Q15.8594-2.06055 15.8594-2.46094L15.8594-6.16211L19.5605-6.16211Q19.9609-6.16211 20.2148-6.41113Q20.4688-6.66016 20.4688-7.04102Q20.4688-7.45117 20.2148-7.70508Q19.9609-7.95898 19.5605-7.95898L15.8594-7.95898L15.8594-11.6504Q15.8594-12.0605 15.6055-12.3145Q15.3516-12.5684 14.9414-12.5684Q14.5605-12.5684 14.3115-12.3096Q14.0625-12.0508 14.0625-11.6504L14.0625-7.95898L10.3711-7.95898Q9.96094-7.95898 9.70703-7.70508Q9.45312-7.45117 9.45312-7.04102Z"/>
  </g>
  <text style="stroke:none;fill:black;font-family:SF Pro,SF Pro Display,SF Pro Text,sans-serif;font-size:13;font-weight:bold;" transform="matrix(1 0 0 1 263 1953)">Design Variations</text>
  <text style="stroke:none;fill:black;font-family:SF Pro,SF Pro Display,SF Pro Text,sans-serif;font-size:13;" transform="matrix(1 0 0 1 263 1971)">Symbols are supported in up to nine weights and three scales.</text>
  <text style="stroke:none;fill:black;font-family:SF Pro,SF Pro Display,SF Pro Text,sans-serif;font-size:13;" transform="matrix(1 0 0 1 263 1989)">For optimal layout with text and other symbols, vertically align</text>
  <text style="stroke:none;fill:black;font-family:SF Pro,SF Pro Display,SF Pro Text,sans-serif;font-size:13;" transform="matrix(1 0 0 1 263 2007)">symbols with the adjacent text.</text>
  <line style="fill:none;stroke:#00AEEF;stroke-width:0.5;opacity:1.0;" x1="776" x2="776" y1="1919" y2="1933"/>
  <g transform="matrix(1 0 0 1 776 1933)">
   <path d="M3.31055 0.15625Q3.70117 0.15625 3.91602-0.00976562Q4.13086-0.175781 4.26758-0.585938L5.52734-4.0332L11.2891-4.0332L12.5488-0.585938Q12.6855-0.175781 12.9004-0.00976562Q13.1152 0.15625 13.4961 0.15625Q13.8867 0.15625 14.1162-0.0585938Q14.3457-0.273438 14.3457-0.644531Q14.3457-0.869141 14.2383-1.17188L9.6582-13.3691Q9.48242-13.8184 9.17969-14.043Q8.87695-14.2676 8.4082-14.2676Q7.5-14.2676 7.17773-13.3789L2.59766-1.16211Q2.49023-0.859375 2.49023-0.634766Q2.49023-0.263672 2.70996-0.0537109Q2.92969 0.15625 3.31055 0.15625ZM6.00586-5.51758L8.37891-12.0898L8.42773-12.0898L10.8008-5.51758Z"/>
  </g>
  <line style="fill:none;stroke:#00AEEF;stroke-width:0.5;opacity:1.0;" x1="793.197" x2="793.197" y1="1919" y2="1933"/>
  <text style="stroke:none;fill:black;font-family:SF Pro,SF Pro Display,SF Pro Text,sans-serif;font-size:13;font-weight:bold;" transform="matrix(1 0 0 1 776 1953)">Margins</text>
  <text style="stroke:none;fill:black;font-family:SF Pro,SF Pro Display,SF Pro Text,sans-serif;font-size:13;" transform="matrix(1 0 0 1 776 1971)">Leading and trailing margins on the left and right side of each symbol</text>
  <text style="stroke:none;fill:black;font-family:SF Pro,SF Pro Display,SF Pro Text,sans-serif;font-size:13;" transform="matrix(1 0 0 1 776 1989)">can be adjusted by modifying the x-location of the margin guidelines.</text>
  <text style="stroke:none;fill:black;font-family:SF Pro,SF Pro Display,SF Pro Text,sans-serif;font-size:13;" transform="matrix(1 0 0 1 776 2007)">Modifications are automatically applied proportionally to all</text>
  <text style="stroke:none;fill:black;font-family:SF Pro,SF Pro Display,SF Pro Text,sans-serif;font-size:13;" transform="matrix(1 0 0 1 776 2025)">scales and weights.</text>
  <g transform="matrix(1 0 0 1 1289 1933)">
   <path d="M2.8418 1.86523L4.54102 3.57422Q5.18555 4.22852 5.90332 4.17969Q6.62109 4.13086 7.31445 3.35938L18.0078-8.42773L17.041-9.4043L6.42578 2.27539Q6.16211 2.57812 5.89355 2.61719Q5.625 2.65625 5.27344 2.30469L4.10156 1.14258Q3.75 0.791016 3.79395 0.522461Q3.83789 0.253906 4.14062-0.0195312L15.6152-10.8203L14.6387-11.7871L3.04688-0.898438Q2.30469-0.214844 2.25098 0.498047Q2.19727 1.21094 2.8418 1.86523ZM9.25781-16.3281Q8.94531-16.0254 8.90625-15.6348Q8.86719-15.2441 9.04297-14.9512Q9.21875-14.6777 9.55566-14.541Q9.89258-14.4043 10.3809-14.5215Q11.4746-14.7754 12.5977-14.7314Q13.7207-14.6875 14.7949-13.9844L14.209-12.5293Q13.9551-11.9043 14.0674-11.4404Q14.1797-10.9766 14.5801-10.5664L16.875-8.25195Q17.2363-7.88086 17.5781-7.82227Q17.9199-7.76367 18.3398-7.8418L19.4043-8.03711L20.0684-7.36328L20.0293-6.80664Q20-6.43555 20.1221-6.12305Q20.2441-5.81055 20.6055-5.44922L21.3672-4.70703Q21.7285-4.3457 22.1533-4.33105Q22.5781-4.31641 22.9297-4.66797L25.8398-7.58789Q26.1914-7.93945 26.1816-8.35449Q26.1719-8.76953 25.8105-9.13086L25.0391-9.89258Q24.6875-10.2539 24.3799-10.3857Q24.0723-10.5176 23.7109-10.4883L23.1348-10.4395L22.4902-11.0742L22.7344-12.1973Q22.832-12.6172 22.6953-12.9834Q22.5586-13.3496 22.1191-13.7891L19.9219-15.9766Q18.6719-17.2168 17.2607-17.8369Q15.8496-18.457 14.4189-18.4814Q12.9883-18.5059 11.665-17.959Q10.3418-17.4121 9.25781-16.3281ZM10.752-15.957Q11.6602-16.6211 12.7002-16.9043Q13.7402-17.1875 14.8047-17.085Q15.8691-16.9824 16.8701-16.5137Q17.8711-16.0449 18.7012-15.2051L21.1328-12.793Q21.3086-12.6172 21.3525-12.4512Q21.3965-12.2852 21.3379-12.0312L21.0156-10.5469L22.5195-9.0625L23.5059-9.12109Q23.6914-9.13086 23.7891-9.09668Q23.8867-9.0625 24.0332-8.91602L24.6094-8.33984L22.168-5.89844L21.5918-6.47461Q21.4453-6.62109 21.4062-6.71875Q21.3672-6.81641 21.377-7.01172L21.4453-7.98828L19.9512-9.47266L18.4277-9.21875Q18.1836-9.16992 18.042-9.2041Q17.9004-9.23828 17.7148-9.41406L15.7129-11.416Q15.5176-11.5918 15.4932-11.7529Q15.4688-11.9141 15.5859-12.1875L16.4648-14.2773Q15.293-15.3711 13.8281-15.791Q12.3633-16.2109 10.8398-15.7617Q10.7227-15.7324 10.6885-15.8057Q10.6543-15.8789 10.752-15.957Z"/>
  </g>
  <text style="stroke:none;fill:black;font-family:SF Pro,SF Pro Display,SF Pro Text,sans-serif;font-size:13;font-weight:bold;" transform="matrix(1 0 0 1 1289 1953)">Exporting</text>
  <text style="stroke:none;fill:black;font-family:SF Pro,SF Pro Display,SF Pro Text,sans-serif;font-size:13;" transform="matrix(1 0 0 1 1289 1971)">Symbols should be outlined when exporting to ensure the</text>
  <text style="stroke:none;fill:black;font-family:SF Pro,SF Pro Display,SF Pro Text,sans-serif;font-size:13;" transform="matrix(1 0 0 1 1289 1989)">design is preserved when submitting to Xcode.</text>
  <text id="template-version" style="stroke:none;fill:black;font-family:SF Pro,SF Pro Display,SF Pro Text,sans-serif;font-size:13;text-anchor:end;" transform="matrix(1 0 0 1 3036 1933)">Template v.3.0</text>
  <text style="stroke:none;fill:black;font-family:SF Pro,SF Pro Display,SF Pro Text,sans-serif;font-size:13;text-anchor:end;" transform="matrix(1 0 0 1 3036 1951)">Requires Xcode 13 or greater</text>
  <text id="descriptive-name" style="stroke:none;fill:black;font-family:SF Pro,SF Pro Display,SF Pro Text,sans-serif;font-size:13;text-anchor:end;" transform="matrix(1 0 0 1 3036 1969)">Generated from circle.fill.square.fill</text>
  <text style="stroke:none;fill:black;font-family:SF Pro,SF Pro Display,SF Pro Text,sans-serif;font-size:13;text-anchor:end;" transform="matrix(1 0 0 1 3036 1987)">Typeset at 100 points</text>
  <text style="stroke:none;fill:black;font-family:SF Pro,SF Pro Display,SF Pro Text,sans-serif;font-size:13;" transform="matrix(1 0 0 1 263 726)">Small</text>
  <text style="stroke:none;fill:black;font-family:SF Pro,SF Pro Display,SF Pro Text,sans-serif;font-size:13;" transform="matrix(1 0 0 1 263 1156)">Medium</text>
  <text style="stroke:none;fill:black;font-family:SF Pro,SF Pro Display,SF Pro Text,sans-serif;font-size:13;" transform="matrix(1 0 0 1 263 1586)">Large</text>
 </g>
 <g id="Guides">
  <g id="H-reference" style="fill:#27AAE1;stroke:none;" transform="matrix(1 0 0 1 339 696)">
   <path d="M0.976562 0L3.66211 0L29.3457-67.1387L30.0293-67.1387L30.0293-70.459L28.125-70.459ZM11.6699-24.4629L46.9727-24.4629L46.2402-26.709L12.4512-26.709ZM55.127 0L57.7637 0L30.6152-70.459L29.4434-70.459L29.4434-67.1387Z"/>
  </g>
  <line id="Baseline-S" style="fill:none;stroke:#27AAE1;opacity:1;stroke-width:0.5;" x1="263" x2="3036" y1="696" y2="696"/>
  <line id="Capline-S" style="fill:none;stroke:#27AAE1;opacity:1;stroke-width:0.5;" x1="263" x2="3036" y1="625.541" y2="625.541"/>
  <g id="H-reference" style="fill:#27AAE1;stroke:none;" transform="matrix(1 0 0 1 339 1126)">
   <path d="M0.976562 0L3.66211 0L29.3457-67.1387L30.0293-67.1387L30.0293-70.459L28.125-70.459ZM11.6699-24.4629L46.9727-24.4629L46.2402-26.709L12.4512-26.709ZM55.127 0L57.7637 0L30.6152-70.459L29.4434-70.459L29.4434-67.1387Z"/>
  </g>
  <line id="Baseline-M" style="fill:none;stroke:#27AAE1;opacity:1;stroke-width:0.5;" x1="263" x2="3036" y1="1126" y2="1126"/>
  <line id="Capline-M" style="fill:none;stroke:#27AAE1;opacity:1;stroke-width:0.5;" x1="263" x2="3036" y1="1055.54" y2="1055.54"/>
  <g id="H-reference" style="fill:#27AAE1;stroke:none;" transform="matrix(1 0 0 1 339 1556)">
   <path d="M0.976562 0L3.66211 0L29.3457-67.1387L30.0293-67.1387L30.0293-70.459L28.125-70.459ZM11.6699-24.4629L46.9727-24.4629L46.2402-26.709L12.4512-26.709ZM55.127 0L57.7637 0L30.6152-70.459L29.4434-70.459L29.4434-67.1387Z"/>
  </g>
  <line id="Baseline-L" style="fill:none;stroke:#27AAE1;opacity:1;stroke-width:0.5;" x1="263" x2="3036" y1="1556" y2="1556"/>
  <line id="Capline-L" style="fill:none;stroke:#27AAE1;opacity:1;stroke-width:0.5;" x1="263" x2="3036" y1="1485.54" y2="1485.54"/>
  <line id="left-margin-Regular-M" style="fill:none;stroke:#00AEEF;stroke-width:0.5;opacity:1.0;" x1="1392.45" x2="1392.45" y1="1030.79" y2="1150.12"/>
  <line id="right-margin-Regular-M" style="fill:none;stroke:#00AEEF;stroke-width:0.5;opacity:1.0;" x1="1507.24" x2="1507.24" y1="1030.79" y2="1150.12"/>
 </g>
 <g id="Symbols">
  <g id="Black-L" transform="matrix(1 0 0 1 2855.62 1556)">
   <path class="hierarchical-0:tertiary SFSymbolsPreview8E8E8E" d="M39.9902 26.5137L115.576 26.5137Q127.002 26.5137 133.252 20.3125Q139.502 14.1113 139.502 2.68555L139.502-73.0957Q139.502-84.4727 133.252-90.6738Q127.002-96.875 115.576-96.875L39.9902-96.875Q28.5645-96.875 22.3145-90.6738Q16.0645-84.4727 16.0645-73.0957L16.0645 2.68555Q16.0645 14.1113 22.3145 20.3125Q28.5645 26.5137 39.9902 26.5137Z"/>
   <path class="hierarchical-1:primary SFSymbolsPreview212121" d="M78.8574-2.68555Q72.2168-2.68555 66.3574-5.24902Q60.498-7.8125 56.0059-12.3047Q51.5137-16.7969 48.9502-22.6807Q46.3867-28.5645 46.3867-35.2051Q46.3867-41.8457 48.9258-47.7295Q51.4648-53.6133 55.957-58.1055Q60.4492-62.5977 66.333-65.1367Q72.2168-67.6758 78.8574-67.6758Q85.5957-67.6758 91.4795-65.1367Q97.3633-62.5977 101.831-58.1299Q106.299-53.6621 108.838-47.7783Q111.377-41.8945 111.377-35.2051Q111.377-28.5156 108.838-22.6318Q106.299-16.748 101.807-12.2559Q97.3145-7.76367 91.4307-5.22461Q85.5469-2.68555 78.8574-2.68555Z"/>
  </g>
  <g id="Heavy-L" transform="matrix(1 0 0 1 2559.93 1556)">
   <path class="hierarchical-0:tertiary SFSymbolsPreview8E8E8E" d="M38.8184 25.4883L114.697 25.4883Q125.684 25.4883 131.567 19.6289Q137.451 13.7695 137.451 2.88086L137.451-73.2422Q137.451-84.1309 131.567-89.9902Q125.684-95.8496 114.697-95.8496L38.8184-95.8496Q27.8809-95.8496 21.9727-89.9902Q16.0645-84.1309 16.0645-73.2422L16.0645 2.88086Q16.0645 13.8184 21.9727 19.6533Q27.8809 25.4883 38.8184 25.4883Z"/>
   <path class="hierarchical-1:primary SFSymbolsPreview212121" d="M77.6855-2.88086Q71.0938-2.88086 65.2588-5.41992Q59.4238-7.95898 54.9561-12.4268Q50.4883-16.8945 47.9248-22.7539Q45.3613-28.6133 45.3613-35.2051Q45.3613-41.7969 47.9004-47.6562Q50.4395-53.5156 54.9072-57.9834Q59.375-62.4512 65.2344-64.9902Q71.0938-67.5293 77.6855-67.5293Q84.375-67.5293 90.21-64.9902Q96.0449-62.4512 100.513-58.0078Q104.98-53.5645 107.495-47.7051Q110.01-41.8457 110.01-35.2051Q110.01-28.5645 107.495-22.7051Q104.98-16.8457 100.513-12.3779Q96.0449-7.91016 90.1855-5.39551Q84.3262-2.88086 77.6855-2.88086Z"/>
  </g>
  <g id="Bold-L" transform="matrix(1 0 0 1 2264.34 1556)">
   <path class="hierarchical-0:tertiary SFSymbolsPreview8E8E8E" d="M37.5488 24.3652L113.721 24.3652Q124.17 24.3652 129.688 18.8965Q135.205 13.4277 135.205 3.07617L135.205-73.4375Q135.205-83.7891 129.688-89.2578Q124.17-94.7266 113.721-94.7266L37.5488-94.7266Q27.0996-94.7266 21.582-89.2578Q16.0645-83.7891 16.0645-73.4375L16.0645 3.07617Q16.0645 13.4766 21.582 18.9209Q27.0996 24.3652 37.5488 24.3652Z"/>
   <path class="hierarchical-1:primary SFSymbolsPreview212121" d="M76.3672-3.07617Q69.8242-3.07617 64.0381-5.61523Q58.252-8.1543 53.8086-12.5977Q49.3652-17.041 46.8262-22.8516Q44.2871-28.6621 44.2871-35.2051Q44.2871-41.7969 46.8018-47.6074Q49.3164-53.418 53.7598-57.8613Q58.2031-62.3047 64.0137-64.8193Q69.8242-67.334 76.3672-67.334Q83.0078-67.334 88.8184-64.8193Q94.6289-62.3047 99.0479-57.8613Q103.467-53.418 106.006-47.6074Q108.545-41.7969 108.545-35.2051Q108.545-28.6133 106.006-22.8027Q103.467-16.9922 99.0234-12.5488Q94.5801-8.10547 88.7695-5.59082Q82.959-3.07617 76.3672-3.07617Z"/>
  </g>
  <g id="Semibold-L" transform="matrix(1 0 0 1 1968.44 1556)">
   <path class="hierarchical-0:tertiary SFSymbolsPreview8E8E8E" d="M36.6211 23.584L112.988 23.584Q123.145 23.584 128.369 18.3838Q133.594 13.1836 133.594 3.17383L133.594-73.5352Q133.594-83.4961 128.369-88.6963Q123.145-93.8965 112.988-93.8965L36.6211-93.8965Q26.5625-93.8965 21.3135-88.7207Q16.0645-83.5449 16.0645-73.5352L16.0645 3.17383Q16.0645 13.2324 21.3135 18.4082Q26.5625 23.584 36.6211 23.584Z"/>
   <path class="hierarchical-1:primary SFSymbolsPreview212121" d="M75.4395-3.17383Q68.9453-3.17383 63.1836-5.71289Q57.4219-8.25195 52.9785-12.6709Q48.5352-17.0898 46.0205-22.876Q43.5059-28.6621 43.5059-35.2051Q43.5059-41.748 45.9961-47.5342Q48.4863-53.3203 52.9297-57.7393Q57.373-62.1582 63.1348-64.6729Q68.8965-67.1875 75.4395-67.1875Q82.0312-67.1875 87.8174-64.6729Q93.6035-62.1582 98.0225-57.7393Q102.441-53.3203 104.956-47.5342Q107.471-41.748 107.471-35.2051Q107.471-28.6621 104.956-22.876Q102.441-17.0898 98.0225-12.6709Q93.6035-8.25195 87.8174-5.71289Q82.0312-3.17383 75.4395-3.17383Z"/>
  </g>
  <g id="Medium-L" transform="matrix(1 0 0 1 1672.31 1556)">
   <path class="hierarchical-0:tertiary SFSymbolsPreview8E8E8E" d="M35.9375 22.998L112.5 22.998Q122.363 22.998 127.393 17.9932Q132.422 12.9883 132.422 3.27148L132.422-73.6328Q132.422-83.3008 127.393-88.3057Q122.363-93.3105 112.5-93.3105L35.9375-93.3105Q26.1719-93.3105 21.1182-88.3301Q16.0645-83.3496 16.0645-73.6328L16.0645 3.27148Q16.0645 13.0371 21.1182 18.0176Q26.1719 22.998 35.9375 22.998Z"/>
   <path class="hierarchical-1:primary SFSymbolsPreview212121" d="M74.7559-3.27148Q68.3105-3.27148 62.5488-5.81055Q56.7871-8.34961 52.3682-12.7441Q47.9492-17.1387 45.4346-22.9004Q42.9199-28.6621 42.9199-35.2051Q42.9199-41.748 45.4102-47.5098Q47.9004-53.2715 52.3193-57.666Q56.7383-62.0605 62.5-64.5996Q68.2617-67.1387 74.7559-67.1387Q81.2988-67.1387 87.0605-64.5996Q92.8223-62.0605 97.2412-57.666Q101.66-53.2715 104.175-47.4854Q106.689-41.6992 106.689-35.2051Q106.689-28.6621 104.175-22.9004Q101.66-17.1387 97.2412-12.7197Q92.8223-8.30078 87.0605-5.78613Q81.2988-3.27148 74.7559-3.27148Z"/>
  </g>
  <g id="Regular-L" transform="matrix(1 0 0 1 1376.38 1556)">
   <path class="hierarchical-0:tertiary SFSymbolsPreview8E8E8E" d="M35.0586 22.2168L111.816 22.2168Q121.338 22.2168 126.099 17.4805Q130.859 12.7441 130.859 3.41797L130.859-73.7305Q130.859-83.0566 126.099-87.793Q121.338-92.5293 111.816-92.5293L35.0586-92.5293Q25.6348-92.5293 20.8496-87.8174Q16.0645-83.1055 16.0645-73.7305L16.0645 3.41797Q16.0645 12.793 20.8496 17.5049Q25.6348 22.2168 35.0586 22.2168Z"/>
   <path class="hierarchical-1:primary SFSymbolsPreview212121" d="M73.877-3.41797Q67.4316-3.41797 61.6943-5.93262Q55.957-8.44727 51.5625-12.8418Q47.168-17.2363 44.6533-22.9736Q42.1387-28.7109 42.1387-35.2051Q42.1387-41.6992 44.6289-47.4365Q47.1191-53.1738 51.5137-57.5684Q55.9082-61.9629 61.6455-64.4775Q67.3828-66.9922 73.877-66.9922Q80.3711-66.9922 86.1084-64.4775Q91.8457-61.9629 96.2402-57.5684Q100.635-53.1738 103.149-47.4121Q105.664-41.6504 105.664-35.2051Q105.664-28.7109 103.149-22.9736Q100.635-17.2363 96.2402-12.8418Q91.8457-8.44727 86.1084-5.93262Q80.3711-3.41797 73.877-3.41797Z"/>
  </g>
  <g id="Light-L" transform="matrix(1 0 0 1 1080.5 1556)">
   <path class="hierarchical-0:tertiary SFSymbolsPreview8E8E8E" d="M34.0332 21.4355L111.182 21.4355Q120.117 21.4355 124.658 16.8945Q129.199 12.3535 129.199 3.56445L129.199-73.8281Q129.199-82.6172 124.658-87.1582Q120.117-91.6992 111.182-91.6992L34.0332-91.6992Q25.1465-91.6992 20.6055-87.207Q16.0645-82.7148 16.0645-73.8281L16.0645 3.56445Q16.0645 12.4023 20.6055 16.9189Q25.1465 21.4355 34.0332 21.4355Z"/>
   <path class="hierarchical-1:primary SFSymbolsPreview212121" d="M73.291-2.83203Q66.748-2.83203 60.9131-5.39551Q55.0781-7.95898 50.5859-12.4268Q46.0938-16.8945 43.5303-22.7539Q40.9668-28.6133 40.9668-35.2051Q40.9668-41.7969 43.5303-47.6562Q46.0938-53.5156 50.5615-57.9834Q55.0293-62.4512 60.8643-65.0146Q66.6992-67.5781 73.291-67.5781Q79.8828-67.5781 85.7422-65.0146Q91.6016-62.4512 96.0693-57.9834Q100.537-53.5156 103.101-47.6318Q105.664-41.748 105.664-35.2051Q105.664-28.6133 103.101-22.7783Q100.537-16.9434 96.0693-12.4512Q91.6016-7.95898 85.7666-5.39551Q79.9316-2.83203 73.291-2.83203Z"/>
  </g>
  <g id="Thin-L" transform="matrix(1 0 0 1 784.889 1556)">
   <path class="hierarchical-0:tertiary SFSymbolsPreview8E8E8E" d="M32.666 20.3613L110.352 20.3613Q118.506 20.3613 122.754 16.0889Q127.002 11.8164 127.002 3.75977L127.002-73.9746Q127.002-82.0312 122.754-86.3037Q118.506-90.5762 110.352-90.5762L32.666-90.5762Q24.5117-90.5762 20.2881-86.377Q16.0645-82.1777 16.0645-73.9746L16.0645 3.75977Q16.0645 11.9141 20.2881 16.1377Q24.5117 20.3613 32.666 20.3613Z"/>
   <path class="hierarchical-1:primary SFSymbolsPreview212121" d="M72.5586-2.09961Q65.8691-2.09961 59.8877-4.71191Q53.9062-7.32422 49.3164-11.9141Q44.7266-16.5039 42.0898-22.4854Q39.4531-28.4668 39.4531-35.2051Q39.4531-41.9434 42.0654-47.9248Q44.6777-53.9062 49.2676-58.5205Q53.8574-63.1348 59.8389-65.7471Q65.8203-68.3594 72.5586-68.3594Q79.2969-68.3594 85.2783-65.7471Q91.2598-63.1348 95.8496-58.5205Q100.439-53.9062 103.052-47.9248Q105.664-41.9434 105.664-35.2051Q105.664-28.4668 103.052-22.5098Q100.439-16.5527 95.8496-11.9385Q91.2598-7.32422 85.2783-4.71191Q79.2969-2.09961 72.5586-2.09961Z"/>
  </g>
  <g id="Ultralight-L" transform="matrix(1 0 0 1 488.739 1556)">
   <path class="hierarchical-0:tertiary SFSymbolsPreview8E8E8E" d="M31.9824 19.8242L109.961 19.8242Q117.725 19.8242 121.802 15.6738Q125.879 11.5234 125.879 3.85742L125.879-74.0723Q125.879-81.7383 121.802-85.8643Q117.725-89.9902 109.961-89.9902L31.9824-89.9902Q24.1699-89.9902 20.1172-85.9375Q16.0645-81.8848 16.0645-74.0723L16.0645 3.85742Q16.0645 11.6699 20.1172 15.7471Q24.1699 19.8242 31.9824 19.8242Z"/>
   <path class="hierarchical-1:primary SFSymbolsPreview212121" d="M72.168-1.70898Q65.3809-1.70898 59.3262-4.3457Q53.2715-6.98242 48.6328-11.6211Q43.9941-16.2598 41.333-22.3145Q38.6719-28.3691 38.6719-35.2051Q38.6719-42.041 41.333-48.0957Q43.9941-54.1504 48.6084-58.8135Q53.2227-63.4766 59.2773-66.1133Q65.332-68.75 72.168-68.75Q78.9551-68.75 85.0098-66.1133Q91.0645-63.4766 95.7031-58.8135Q100.342-54.1504 103.003-48.0713Q105.664-41.9922 105.664-35.2051Q105.664-28.3691 103.003-22.3389Q100.342-16.3086 95.7031-11.6455Q91.0645-6.98242 85.0342-4.3457Q79.0039-1.70898 72.168-1.70898Z"/>
  </g>
  <g id="Black-M" transform="matrix(1 0 0 1 2872.54 1126)">
   <path class="hierarchical-0:tertiary SFSymbolsPreview8E8E8E" d="M31.5918 13.2324L90.1367 13.2324Q99.1699 13.2324 104.224 8.17871Q109.277 3.125 109.277-5.9082L109.277-64.4531Q109.277-73.5352 104.224-78.5645Q99.1699-83.5938 90.1367-83.5938L31.5918-83.5938Q22.5586-83.5938 17.5049-78.5645Q12.4512-73.5352 12.4512-64.4531L12.4512-5.9082Q12.4512 3.125 17.5049 8.17871Q22.5586 13.2324 31.5918 13.2324Z"/>
   <path class="hierarchical-1:primary SFSymbolsPreview212121" d="M61.9629-9.66797Q56.7383-9.66797 52.124-11.6699Q47.5098-13.6719 43.9697-17.2119Q40.4297-20.752 38.4277-25.3662Q36.4258-29.9805 36.4258-35.2051Q36.4258-40.4297 38.4277-45.0684Q40.4297-49.707 43.9453-53.2227Q47.4609-56.7383 52.0752-58.7402Q56.6895-60.7422 61.9629-60.7422Q67.2363-60.7422 71.875-58.7402Q76.5137-56.7383 80.0049-53.2471Q83.4961-49.7559 85.4736-45.1172Q87.4512-40.4785 87.4512-35.2051Q87.4512-29.9316 85.4736-25.3174Q83.4961-20.7031 79.9561-17.1875Q76.416-13.6719 71.8018-11.6699Q67.1875-9.66797 61.9629-9.66797Z"/>
  </g>
  <g id="Heavy-M" transform="matrix(1 0 0 1 2576.65 1126)">
   <path class="hierarchical-0:tertiary SFSymbolsPreview8E8E8E" d="M30.7129 12.4023L89.4043 12.4023Q98.0957 12.4023 102.856 7.66602Q107.617 2.92969 107.617-5.76172L107.617-64.5996Q107.617-73.291 102.856-78.0273Q98.0957-82.7637 89.4043-82.7637L30.7129-82.7637Q21.9727-82.7637 17.2119-78.0273Q12.4512-73.291 12.4512-64.5996L12.4512-5.76172Q12.4512 2.92969 17.2119 7.66602Q21.9727 12.4023 30.7129 12.4023Z"/>
   <path class="hierarchical-1:primary SFSymbolsPreview212121" d="M60.9375-9.96094Q55.7617-9.96094 51.1963-11.9385Q46.6309-13.916 43.1396-17.4316Q39.6484-20.9473 37.6709-25.4883Q35.6934-30.0293 35.6934-35.2051Q35.6934-40.3809 37.6709-44.9463Q39.6484-49.5117 43.1396-53.0029Q46.6309-56.4941 51.1719-58.4717Q55.7129-60.4492 60.9375-60.4492Q66.1133-60.4492 70.7031-58.4717Q75.293-56.4941 78.7598-53.0273Q82.2266-49.5605 84.1797-44.9707Q86.1328-40.3809 86.1328-35.2051Q86.1328-29.9805 84.1797-25.4395Q82.2266-20.8984 78.7109-17.4072Q75.1953-13.916 70.6543-11.9385Q66.1133-9.96094 60.9375-9.96094Z"/>
  </g>
  <g id="Bold-M" transform="matrix(1 0 0 1 2280.85 1126)">
   <path class="hierarchical-0:tertiary SFSymbolsPreview8E8E8E" d="M29.6875 11.5234L88.5742 11.5234Q96.9238 11.5234 101.367 7.10449Q105.811 2.68555 105.811-5.66406L105.811-64.7461Q105.811-73.0469 101.367-77.4658Q96.9238-81.8848 88.5742-81.8848L29.6875-81.8848Q21.3379-81.8848 16.8945-77.4658Q12.4512-73.0469 12.4512-64.7461L12.4512-5.66406Q12.4512 2.68555 16.8945 7.10449Q21.3379 11.5234 29.6875 11.5234Z"/>
   <path class="hierarchical-1:primary SFSymbolsPreview212121" d="M59.7656-10.3027Q54.6875-10.3027 50.1953-12.2559Q45.7031-14.209 42.2607-17.6758Q38.8184-21.1426 36.8408-25.6348Q34.8633-30.127 34.8633-35.2051Q34.8633-40.332 36.8164-44.8486Q38.7695-49.3652 42.2119-52.7832Q45.6543-56.2012 50.1709-58.1787Q54.6875-60.1562 59.7656-60.1562Q64.8926-60.1562 69.4092-58.1787Q73.9258-56.2012 77.3438-52.7832Q80.7617-49.3652 82.7148-44.8486Q84.668-40.332 84.668-35.2051Q84.668-30.0781 82.7393-25.5859Q80.8105-21.0938 77.3438-17.6514Q73.877-14.209 69.3848-12.2559Q64.8926-10.3027 59.7656-10.3027Z"/>
  </g>
  <g id="Semibold-M" transform="matrix(1 0 0 1 1984.77 1126)">
   <path class="hierarchical-0:tertiary SFSymbolsPreview8E8E8E" d="M29.0039 10.8887L87.9883 10.8887Q96.0938 10.8887 100.317 6.68945Q104.541 2.49023 104.541-5.51758L104.541-64.8438Q104.541-72.8516 100.317-77.0508Q96.0938-81.25 87.9883-81.25L29.0039-81.25Q20.8984-81.25 16.6748-77.0508Q12.4512-72.8516 12.4512-64.8438L12.4512-5.51758Q12.4512 2.49023 16.6748 6.68945Q20.8984 10.8887 29.0039 10.8887Z"/>
   <path class="hierarchical-1:primary SFSymbolsPreview212121" d="M58.9844-10.498Q53.9551-10.498 49.4873-12.4512Q45.0195-14.4043 41.6016-17.8223Q38.1836-21.2402 36.2305-25.708Q34.2773-30.1758 34.2773-35.2051Q34.2773-40.2832 36.2305-44.751Q38.1836-49.2188 41.6016-52.6123Q45.0195-56.0059 49.4629-57.959Q53.9062-59.9121 58.9844-59.9121Q64.0625-59.9121 68.5059-57.959Q72.9492-56.0059 76.3672-52.5879Q79.7852-49.1699 81.7139-44.7021Q83.6426-40.2344 83.6426-35.2051Q83.6426-30.127 81.7139-25.6592Q79.7852-21.1914 76.3672-17.7979Q72.9492-14.4043 68.4814-12.4512Q64.0137-10.498 58.9844-10.498Z"/>
  </g>
  <g id="Medium-M" transform="matrix(1 0 0 1 1688.52 1126)">
   <path class="hierarchical-0:tertiary SFSymbolsPreview8E8E8E" d="M28.4668 10.4004L87.5977 10.4004Q95.5078 10.4004 99.5605 6.37207Q103.613 2.34375 103.613-5.46875L103.613-64.8926Q103.613-72.7539 99.5605-76.7578Q95.5078-80.7617 87.5977-80.7617L28.4668-80.7617Q20.5566-80.7617 16.5039-76.7578Q12.4512-72.7539 12.4512-64.8926L12.4512-5.46875Q12.4512 2.34375 16.5039 6.37207Q20.5566 10.4004 28.4668 10.4004Z"/>
   <path class="hierarchical-1:primary SFSymbolsPreview212121" d="M58.3496-10.6934Q53.3691-10.6934 48.9258-12.6221Q44.4824-14.5508 41.1133-17.9443Q37.7441-21.3379 35.8154-25.7812Q33.8867-30.2246 33.8867-35.2051Q33.8867-40.2344 35.791-44.6777Q37.6953-49.1211 41.0889-52.4902Q44.4824-55.8594 48.9258-57.7881Q53.3691-59.7168 58.3496-59.7168Q63.3789-59.7168 67.7979-57.7881Q72.2168-55.8594 75.6104-52.4658Q79.0039-49.0723 80.957-44.6289Q82.9102-40.1855 82.9102-35.2051Q82.9102-30.1758 80.9814-25.7324Q79.0527-21.2891 75.6592-17.9199Q72.2656-14.5508 67.8223-12.6221Q63.3789-10.6934 58.3496-10.6934Z"/>
  </g>
  <g id="Regular-M" transform="matrix(1 0 0 1 1392.45 1126)">
   <path class="hierarchical-0:tertiary SFSymbolsPreview8E8E8E" d="M27.7832 9.76562L87.0117 9.76562Q94.6777 9.76562 98.5107 5.98145Q102.344 2.19727 102.344-5.37109L102.344-64.9902Q102.344-72.5586 98.5107-76.3428Q94.6777-80.127 87.0117-80.127L27.7832-80.127Q20.1172-80.127 16.2842-76.3428Q12.4512-72.5586 12.4512-64.9902L12.4512-5.37109Q12.4512 2.19727 16.2842 5.98145Q20.1172 9.76562 27.7832 9.76562Z"/>
   <path class="hierarchical-1:primary SFSymbolsPreview212121" d="M57.5684-10.8887Q52.6367-10.8887 48.2422-12.8174Q43.8477-14.7461 40.5029-18.1152Q37.1582-21.4844 35.2295-25.8789Q33.3008-30.2734 33.3008-35.2051Q33.3008-40.1855 35.2051-44.5801Q37.1094-48.9746 40.4785-52.3193Q43.8477-55.6641 48.2422-57.5928Q52.6367-59.5215 57.5684-59.5215Q62.5488-59.5215 66.9189-57.5928Q71.2891-55.6641 74.6582-52.2949Q78.0273-48.9258 79.9561-44.5312Q81.8848-40.1367 81.8848-35.2051Q81.8848-30.2246 79.9805-25.8301Q78.0762-21.4355 74.707-18.0908Q71.3379-14.7461 66.9434-12.8174Q62.5488-10.8887 57.5684-10.8887Z"/>
  </g>
  <g id="Light-M" transform="matrix(1 0 0 1 1096.47 1126)">
   <path class="hierarchical-0:tertiary SFSymbolsPreview8E8E8E" d="M26.8555 9.0332L86.4746 9.0332Q93.6035 9.0332 97.2412 5.44434Q100.879 1.85547 100.879-5.22461L100.879-65.0879Q100.879-72.168 97.2412-75.7812Q93.6035-79.3945 86.4746-79.3945L26.8555-79.3945Q19.6777-79.3945 16.0645-75.8057Q12.4512-72.2168 12.4512-65.0879L12.4512-5.22461Q12.4512 1.85547 16.0645 5.44434Q19.6777 9.0332 26.8555 9.0332Z"/>
   <path class="hierarchical-1:primary SFSymbolsPreview212121" d="M57.0801-10.3516Q52.0508-10.3516 47.5586-12.3291Q43.0664-14.3066 39.624-17.749Q36.1816-21.1914 34.2285-25.6836Q32.2754-30.1758 32.2754-35.2051Q32.2754-40.2832 34.2285-44.7754Q36.1816-49.2676 39.624-52.6855Q43.0664-56.1035 47.5342-58.0811Q52.002-60.0586 57.0801-60.0586Q62.1094-60.0586 66.5771-58.0811Q71.0449-56.1035 74.4873-52.6611Q77.9297-49.2188 79.9072-44.7266Q81.8848-40.2344 81.8848-35.2051Q81.8848-30.127 79.9316-25.6348Q77.9785-21.1426 74.5361-17.7246Q71.0938-14.3066 66.626-12.3291Q62.1582-10.3516 57.0801-10.3516Z"/>
  </g>
  <g id="Thin-M" transform="matrix(1 0 0 1 800.758 1126)">
   <path class="hierarchical-0:tertiary SFSymbolsPreview8E8E8E" d="M25.5859 8.05664L85.6934 8.05664Q92.2363 8.05664 95.5566 4.71191Q98.877 1.36719 98.877-5.07812L98.877-65.2344Q98.877-71.6309 95.5566-75Q92.2363-78.3691 85.6934-78.3691L25.5859-78.3691Q19.1406-78.3691 15.7959-75.0488Q12.4512-71.7285 12.4512-65.2344L12.4512-5.07812Q12.4512 1.41602 15.7959 4.73633Q19.1406 8.05664 25.5859 8.05664Z"/>
   <path class="hierarchical-1:primary SFSymbolsPreview212121" d="M56.3965-9.7168Q51.2207-9.7168 46.6309-11.7432Q42.041-13.7695 38.501-17.2852Q34.9609-20.8008 32.9346-25.415Q30.9082-30.0293 30.9082-35.2051Q30.9082-40.3809 32.9102-45.0195Q34.9121-49.6582 38.4521-53.1738Q41.9922-56.6895 46.582-58.7158Q51.1719-60.7422 56.3965-60.7422Q61.5723-60.7422 66.1621-58.7158Q70.752-56.6895 74.292-53.1494Q77.832-49.6094 79.8584-44.9951Q81.8848-40.3809 81.8848-35.2051Q81.8848-30.0293 79.8828-25.415Q77.8809-20.8008 74.3408-17.2852Q70.8008-13.7695 66.2109-11.7432Q61.6211-9.7168 56.3965-9.7168Z"/>
  </g>
  <g id="Ultralight-M" transform="matrix(1 0 0 1 504.535 1126)">
   <path class="hierarchical-0:tertiary SFSymbolsPreview8E8E8E" d="M24.9512 7.56836L85.3516 7.56836Q91.5039 7.56836 94.7021 4.3457Q97.9004 1.12305 97.9004-4.98047L97.9004-65.332Q97.9004-71.3867 94.7021-74.6338Q91.5039-77.8809 85.3516-77.8809L24.9512-77.8809Q18.8477-77.8809 15.6494-74.6826Q12.4512-71.4844 12.4512-65.332L12.4512-4.98047Q12.4512 1.2207 15.6494 4.39453Q18.8477 7.56836 24.9512 7.56836Z"/>
   <path class="hierarchical-1:primary SFSymbolsPreview212121" d="M56.0547-9.32617Q50.8301-9.32617 46.167-11.4014Q41.5039-13.4766 37.8906-17.041Q34.2773-20.6055 32.251-25.2686Q30.2246-29.9316 30.2246-35.2051Q30.2246-40.4785 32.251-45.166Q34.2773-49.8535 37.8662-53.418Q41.4551-56.9824 46.1182-59.0576Q50.7812-61.1328 56.0547-61.1328Q61.2793-61.1328 65.9424-59.0576Q70.6055-56.9824 74.1943-53.418Q77.7832-49.8535 79.834-45.166Q81.8848-40.4785 81.8848-35.2051Q81.8848-29.9316 79.834-25.2686Q77.7832-20.6055 74.2188-17.041Q70.6543-13.4766 65.9912-11.4014Q61.3281-9.32617 56.0547-9.32617Z"/>
  </g>
  <g id="Black-S" transform="matrix(1 0 0 1 2885.5 696)">
   <path class="hierarchical-0:tertiary SFSymbolsPreview8E8E8E" d="M25 2.92969L70.8008 2.92969Q77.9785 2.92969 82.0068-1.09863Q86.0352-5.12695 86.0352-12.3047L86.0352-58.1055Q86.0352-65.2832 82.0068-69.3115Q77.9785-73.3398 70.8008-73.3398L25-73.3398Q17.8223-73.3398 13.7939-69.3115Q9.76562-65.2832 9.76562-58.1055L9.76562-12.3047Q9.76562-5.12695 13.7939-1.09863Q17.8223 2.92969 25 2.92969Z"/>
   <path class="hierarchical-1:primary SFSymbolsPreview212121" d="M48.8281-15.0879Q43.3594-15.0879 38.7695-17.8223Q34.1797-20.5566 31.4453-25.1465Q28.7109-29.7363 28.7109-35.2051Q28.7109-40.7227 31.4453-45.2881Q34.1797-49.8535 38.7451-52.5879Q43.3105-55.3223 48.8281-55.3223Q54.3945-55.3223 58.96-52.6123Q63.5254-49.9023 66.2354-45.3369Q68.9453-40.7715 68.9453-35.2051Q68.9453-29.6875 66.2109-25.1221Q63.4766-20.5566 58.9111-17.8223Q54.3457-15.0879 48.8281-15.0879Z"/>
  </g>
  <g id="Heavy-S" transform="matrix(1 0 0 1 2589.4 696)">
   <path class="hierarchical-0:tertiary SFSymbolsPreview8E8E8E" d="M24.3652 2.34375L70.2637 2.34375Q77.1973 2.34375 81.0059-1.46484Q84.8145-5.27344 84.8145-12.207L84.8145-58.2031Q84.8145-65.1367 81.0059-68.9453Q77.1973-72.7539 70.2637-72.7539L24.3652-72.7539Q17.3828-72.7539 13.5742-68.9453Q9.76562-65.1367 9.76562-58.2031L9.76562-12.207Q9.76562-5.27344 13.5742-1.46484Q17.3828 2.34375 24.3652 2.34375Z"/>
   <path class="hierarchical-1:primary SFSymbolsPreview212121" d="M47.998-15.3809Q42.627-15.3809 38.1104-18.0908Q33.5938-20.8008 30.9082-25.3174Q28.2227-29.834 28.2227-35.2051Q28.2227-40.625 30.9082-45.1172Q33.5938-49.6094 38.0859-52.3193Q42.5781-55.0293 47.998-55.0293Q53.4668-55.0293 57.959-52.3438Q62.4512-49.6582 65.1367-45.166Q67.8223-40.6738 67.8223-35.2051Q67.8223-29.7852 65.1367-25.293Q62.4512-20.8008 57.9346-18.0908Q53.418-15.3809 47.998-15.3809Z"/>
  </g>
  <g id="Bold-S" transform="matrix(1 0 0 1 2293.35 696)">
   <path class="hierarchical-0:tertiary SFSymbolsPreview8E8E8E" d="M23.6328 1.66016L69.6289 1.66016Q76.3672 1.66016 79.9316-1.9043Q83.4961-5.46875 83.4961-12.1094L83.4961-58.3008Q83.4961-64.9902 79.9316-68.5303Q76.3672-72.0703 69.6289-72.0703L23.6328-72.0703Q16.9434-72.0703 13.3545-68.5303Q9.76562-64.9902 9.76562-58.3008L9.76562-12.1094Q9.76562-5.46875 13.3545-1.9043Q16.9434 1.66016 23.6328 1.66016Z"/>
   <path class="hierarchical-1:primary SFSymbolsPreview212121" d="M47.1191-15.7715Q41.8457-15.7715 37.4023-18.4326Q32.959-21.0938 30.3223-25.5127Q27.6855-29.9316 27.6855-35.2051Q27.6855-40.5273 30.3223-44.9463Q32.959-49.3652 37.3779-52.0264Q41.7969-54.6875 47.1191-54.6875Q52.4414-54.6875 56.8604-52.0264Q61.2793-49.3652 63.916-44.9463Q66.5527-40.5273 66.5527-35.2051Q66.5527-29.8828 63.916-25.4639Q61.2793-21.0449 56.8604-18.4082Q52.4414-15.7715 47.1191-15.7715Z"/>
  </g>
  <g id="Semibold-S" transform="matrix(1 0 0 1 1997.12 696)">
   <path class="hierarchical-0:tertiary SFSymbolsPreview8E8E8E" d="M23.0957 1.2207L69.1895 1.2207Q75.7324 1.2207 79.126-2.17285Q82.5195-5.56641 82.5195-12.0605L82.5195-58.3496Q82.5195-64.8438 79.126-68.2373Q75.7324-71.6309 69.1895-71.6309L23.0957-71.6309Q16.6016-71.6309 13.1836-68.2373Q9.76562-64.8438 9.76562-58.3496L9.76562-12.0605Q9.76562-5.56641 13.1836-2.17285Q16.6016 1.2207 23.0957 1.2207Z"/>
   <path class="hierarchical-1:primary SFSymbolsPreview212121" d="M46.4844-15.9668Q41.2598-15.9668 36.8896-18.6035Q32.5195-21.2402 29.9072-25.6104Q27.2949-29.9805 27.2949-35.2051Q27.2949-40.4785 29.9072-44.8242Q32.5195-49.1699 36.8652-51.8066Q41.2109-54.4434 46.4844-54.4434Q51.709-54.4434 56.0791-51.8066Q60.4492-49.1699 63.0615-44.7998Q65.6738-40.4297 65.6738-35.2051Q65.6738-29.9316 63.0615-25.5859Q60.4492-21.2402 56.0791-18.6035Q51.709-15.9668 46.4844-15.9668Z"/>
  </g>
  <g id="Medium-S" transform="matrix(1 0 0 1 1700.75 696)">
   <path class="hierarchical-0:tertiary SFSymbolsPreview8E8E8E" d="M22.7051 0.830078L68.8965 0.830078Q75.293 0.830078 78.5645-2.41699Q81.8359-5.66406 81.8359-11.9629L81.8359-58.4473Q81.8359-64.7461 78.5645-67.9932Q75.293-71.2402 68.8965-71.2402L22.7051-71.2402Q16.3574-71.2402 13.0615-67.9932Q9.76562-64.7461 9.76562-58.4473L9.76562-11.9629Q9.76562-5.66406 13.0615-2.41699Q16.3574 0.830078 22.7051 0.830078Z"/>
   <path class="hierarchical-1:primary SFSymbolsPreview212121" d="M45.9961-16.1621Q40.8203-16.1621 36.499-18.7744Q32.1777-21.3867 29.5898-25.7324Q27.002-30.0781 27.002-35.2051Q27.002-40.3809 29.5898-44.7266Q32.1777-49.0723 36.4746-51.6602Q40.7715-54.248 45.9961-54.248Q51.1719-54.248 55.5176-51.6357Q59.8633-49.0234 62.4512-44.7021Q65.0391-40.3809 65.0391-35.2051Q65.0391-30.0293 62.4268-25.6836Q59.8145-21.3379 55.4932-18.75Q51.1719-16.1621 45.9961-16.1621Z"/>
  </g>
  <g id="Regular-S" transform="matrix(1 0 0 1 1404.51 696)">
   <path class="hierarchical-0:tertiary SFSymbolsPreview8E8E8E" d="M22.2168 0.390625L68.457 0.390625Q74.707 0.390625 77.8076-2.68555Q80.9082-5.76172 80.9082-11.9141L80.9082-58.4961Q80.9082-64.6484 77.8076-67.7246Q74.707-70.8008 68.457-70.8008L22.2168-70.8008Q16.0156-70.8008 12.8906-67.7246Q9.76562-64.6484 9.76562-58.4961L9.76562-11.9141Q9.76562-5.76172 12.8906-2.68555Q16.0156 0.390625 22.2168 0.390625Z"/>
   <path class="hierarchical-1:primary SFSymbolsPreview212121" d="M45.3613-16.4062Q40.2832-16.4062 36.0107-18.9941Q31.7383-21.582 29.1748-25.8545Q26.6113-30.127 26.6113-35.2051Q26.6113-40.332 29.1748-44.6045Q31.7383-48.877 35.9863-51.4404Q40.2344-54.0039 45.3613-54.0039Q50.4883-54.0039 54.7607-51.416Q59.0332-48.8281 61.5967-44.5557Q64.1602-40.2832 64.1602-35.2051Q64.1602-30.0781 61.5967-25.8057Q59.0332-21.5332 54.7607-18.9697Q50.4883-16.4062 45.3613-16.4062Z"/>
  </g>
  <g id="Light-S" transform="matrix(1 0 0 1 1108.46 696)">
   <path class="hierarchical-0:tertiary SFSymbolsPreview8E8E8E" d="M21.3867-0.244141L67.9688-0.244141Q73.7793-0.244141 76.6846-3.17383Q79.5898-6.10352 79.5898-11.8164L79.5898-58.5938Q79.5898-64.3066 76.6846-67.2119Q73.7793-70.1172 67.9688-70.1172L21.3867-70.1172Q15.625-70.1172 12.6953-67.2119Q9.76562-64.3066 9.76562-58.5938L9.76562-11.8164Q9.76562-6.05469 12.6953-3.14941Q15.625-0.244141 21.3867-0.244141Z"/>
   <path class="hierarchical-1:primary SFSymbolsPreview212121" d="M44.9219-15.9668Q39.6973-15.9668 35.3271-18.6035Q30.957-21.2402 28.3203-25.6348Q25.6836-30.0293 25.6836-35.2051Q25.6836-40.4297 28.3203-44.8242Q30.957-49.2188 35.3271-51.8555Q39.6973-54.4922 44.9219-54.4922Q50.1465-54.4922 54.5166-51.8311Q58.8867-49.1699 61.5234-44.7998Q64.1602-40.4297 64.1602-35.2051Q64.1602-29.9805 61.5479-25.5859Q58.9355-21.1914 54.541-18.5791Q50.1465-15.9668 44.9219-15.9668Z"/>
  </g>
  <g id="Thin-S" transform="matrix(1 0 0 1 812.623 696)">
   <path class="hierarchical-0:tertiary SFSymbolsPreview8E8E8E" d="M20.3125-1.12305L67.2852-1.12305Q72.5098-1.12305 75.1709-3.80859Q77.832-6.49414 77.832-11.6211L77.832-58.6914Q77.832-63.8184 75.1709-66.5283Q72.5098-69.2383 67.2852-69.2383L20.3125-69.2383Q15.0879-69.2383 12.4268-66.5771Q9.76562-63.916 9.76562-58.6914L9.76562-11.6211Q9.76562-6.44531 12.4268-3.78418Q15.0879-1.12305 20.3125-1.12305Z"/>
   <path class="hierarchical-1:primary SFSymbolsPreview212121" d="M44.2871-15.332Q38.9648-15.332 34.4482-18.0664Q29.9316-20.8008 27.2217-25.3174Q24.5117-29.834 24.5117-35.2051Q24.5117-40.625 27.2217-45.1416Q29.9316-49.6582 34.4238-52.3682Q38.916-55.0781 44.2871-55.0781Q49.707-55.0781 54.2236-52.3682Q58.7402-49.6582 61.4502-45.1172Q64.1602-40.5762 64.1602-35.2051Q64.1602-29.834 61.4502-25.3174Q58.7402-20.8008 54.2236-18.0664Q49.707-15.332 44.2871-15.332Z"/>
  </g>
  <g id="Ultralight-S" transform="matrix(1 0 0 1 516.352 696)">
   <path class="hierarchical-0:tertiary SFSymbolsPreview8E8E8E" d="M19.7754-1.5625L66.9434-1.5625Q71.875-1.5625 74.4141-4.15039Q76.9531-6.73828 76.9531-11.5723L76.9531-58.7891Q76.9531-63.623 74.4141-66.1865Q71.875-68.75 66.9434-68.75L19.7754-68.75Q14.8438-68.75 12.3047-66.2109Q9.76562-63.6719 9.76562-58.7891L9.76562-11.5723Q9.76562-6.64062 12.3047-4.10156Q14.8438-1.5625 19.7754-1.5625Z"/>
   <path class="hierarchical-1:primary SFSymbolsPreview212121" d="M43.9941-15.0391Q38.5742-15.0391 34.0088-17.8223Q29.4434-20.6055 26.6602-25.1953Q23.877-29.7852 23.877-35.2051Q23.877-40.6738 26.6357-45.2637Q29.3945-49.8535 33.9844-52.6367Q38.5742-55.4199 43.9941-55.4199Q49.5117-55.4199 54.0771-52.6367Q58.6426-49.8535 61.4014-45.2637Q64.1602-40.6738 64.1602-35.2051Q64.1602-29.7363 61.4258-25.1465Q58.6914-20.5566 54.1016-17.7979Q49.5117-15.0391 43.9941-15.0391Z"/>
  </g>
 </g>
</svg>
